<?xml version="1.0" encoding="UTF-8" standalone="no"?>
<svg
   viewBox="0 0 512 512"
   style="height: 512px; width: 512px;"
   version="1.1"
   id="svg6"
   sodipodi:docname="battery.svg"
   inkscape:version="1.1.2 (0a00cf5339, 2022-02-04)"
   xmlns:inkscape="http://www.inkscape.org/namespaces/inkscape"
   xmlns:sodipodi="http://sodipodi.sourceforge.net/DTD/sodipodi-0.dtd"
   xmlns="http://www.w3.org/2000/svg"
   xmlns:svg="http://www.w3.org/2000/svg">
  <defs
     id="defs10" />
  <sodipodi:namedview
     id="namedview8"
     pagecolor="#ffffff"
     bordercolor="#666666"
     borderopacity="1.0"
     inkscape:pageshadow="2"
     inkscape:pageopacity="0.0"
     inkscape:pagecheckerboard="0"
     showgrid="false"
     inkscape:zoom="0.83496094"
     inkscape:cx="235.93918"
     inkscape:cy="231.14854"
     inkscape:window-width="936"
     inkscape:window-height="1020"
     inkscape:window-x="969"
     inkscape:window-y="45"
     inkscape:window-maximized="1"
     inkscape:current-layer="svg6" />
  <g
     class=""
     style="fill:#d9e0ee"
     id="g4"
     transform="translate(0,0)">
    <path
       d="M201 16c-15 0-20 3.38-20 20v15h-45c-29.547 0-35 5.453-35 35v375c0 29.547 5.453 35 35 35h240c29.547 0 35-5.453 35-35V86c0-29.547-5.453-35-35-35h-45V36c0-16.62-5-20-20-20H201zm-48.094 69.813c4.666.02 10.594.187 18.094.187h170c40 0 35-5 35 35v305c0 40 5 35-35 35H171c-40 0-35 5-35-35V121c0-32.5-3.31-35.283 16.906-35.188zM161 101c-5.54 0-10 4.46-10 10v55c0 5.54 4.46 10 10 10h190c5.54 0 10-4.46 10-10v-55c0-5.54-4.46-10-10-10H161zm0 90c-5.54 0-10 4.46-10 10v55c0 5.54 4.46 10 10 10h190c5.54 0 10-4.46 10-10v-55c0-5.54-4.46-10-10-10H161zm0 90c-5.54 0-10 4.46-10 10v55c0 5.54 4.46 10 10 10h190c5.54 0 10-4.46 10-10v-55c0-5.54-4.46-10-10-10H161zm0 90c-5.54 0-10 4.46-10 10v55c0 5.54 4.46 10 10 10h190c5.54 0 10-4.46 10-10v-55c0-5.54-4.46-10-10-10H161z"
       fill="#D9E0EE"
       fill-opacity="1"
       id="path2"
       style="fill:#d9e0ee" />
  </g>
</svg>
